<mxfile host="app.diagrams.net" modified="2023-04-19T08:05:14.816Z" agent="Mozilla/5.0 (Windows NT 10.0; Win64; x64) AppleWebKit/537.36 (KHTML, like Gecko) Chrome/112.0.0.0 Safari/537.36 Edg/112.0.1722.48" etag="z6qFlGSUEsVoODhHSnQT" version="21.1.9" type="device">
  <diagram name="Страница 1" id="FUJyfEk33HiKqLZVbKmT">
    <mxGraphModel dx="1975" dy="663" grid="1" gridSize="10" guides="1" tooltips="1" connect="1" arrows="1" fold="1" page="1" pageScale="1" pageWidth="827" pageHeight="1169" math="0" shadow="0">
      <root>
        <mxCell id="0" />
        <mxCell id="1" parent="0" />
        <mxCell id="rsw7MymRpZkF1JD-pnbW-4" style="edgeStyle=orthogonalEdgeStyle;rounded=0;orthogonalLoop=1;jettySize=auto;html=1;exitX=0.5;exitY=1;exitDx=0;exitDy=0;endArrow=open;endFill=0;entryX=0.5;entryY=0.5;entryDx=0;entryDy=-15;entryPerimeter=0;" edge="1" parent="1" source="rsw7MymRpZkF1JD-pnbW-1" target="rsw7MymRpZkF1JD-pnbW-5">
          <mxGeometry relative="1" as="geometry">
            <mxPoint x="429" y="270" as="targetPoint" />
          </mxGeometry>
        </mxCell>
        <mxCell id="rsw7MymRpZkF1JD-pnbW-1" value="" style="ellipse;html=1;shape=endState;fillColor=#000000;strokeColor=none;" vertex="1" parent="1">
          <mxGeometry x="414" y="180" width="30" height="30" as="geometry" />
        </mxCell>
        <mxCell id="rsw7MymRpZkF1JD-pnbW-2" value="" style="ellipse;html=1;shape=endState;fillColor=#000000;strokeColor=#140000;" vertex="1" parent="1">
          <mxGeometry x="421" y="1894" width="30" height="30" as="geometry" />
        </mxCell>
        <mxCell id="rsw7MymRpZkF1JD-pnbW-7" style="edgeStyle=orthogonalEdgeStyle;rounded=0;orthogonalLoop=1;jettySize=auto;html=1;exitX=0.5;exitY=0.5;exitDx=0;exitDy=15;exitPerimeter=0;entryX=0.5;entryY=0;entryDx=0;entryDy=0;endArrow=open;endFill=0;" edge="1" parent="1" source="rsw7MymRpZkF1JD-pnbW-5" target="rsw7MymRpZkF1JD-pnbW-6">
          <mxGeometry relative="1" as="geometry" />
        </mxCell>
        <mxCell id="rsw7MymRpZkF1JD-pnbW-5" value="Ввод размерности массива size" style="html=1;dashed=0;whiteSpace=wrap;shape=mxgraph.dfd.start" vertex="1" parent="1">
          <mxGeometry x="363.5" y="270" width="131" height="30" as="geometry" />
        </mxCell>
        <mxCell id="rsw7MymRpZkF1JD-pnbW-9" style="edgeStyle=orthogonalEdgeStyle;rounded=0;orthogonalLoop=1;jettySize=auto;html=1;exitX=0;exitY=0.5;exitDx=0;exitDy=0;entryX=0;entryY=0.5;entryDx=0;entryDy=0;entryPerimeter=0;endArrow=open;endFill=0;" edge="1" parent="1" source="rsw7MymRpZkF1JD-pnbW-6" target="rsw7MymRpZkF1JD-pnbW-5">
          <mxGeometry relative="1" as="geometry">
            <mxPoint x="340" y="350.33333333333337" as="targetPoint" />
          </mxGeometry>
        </mxCell>
        <mxCell id="rsw7MymRpZkF1JD-pnbW-17" style="edgeStyle=orthogonalEdgeStyle;rounded=0;orthogonalLoop=1;jettySize=auto;html=1;exitX=1;exitY=0.5;exitDx=0;exitDy=0;entryX=0.5;entryY=0.5;entryDx=0;entryDy=-25;entryPerimeter=0;endArrow=open;endFill=0;" edge="1" parent="1" source="rsw7MymRpZkF1JD-pnbW-6" target="rsw7MymRpZkF1JD-pnbW-13">
          <mxGeometry relative="1" as="geometry" />
        </mxCell>
        <mxCell id="rsw7MymRpZkF1JD-pnbW-6" value="" style="rhombus;whiteSpace=wrap;html=1;" vertex="1" parent="1">
          <mxGeometry x="419" y="340" width="20" height="20" as="geometry" />
        </mxCell>
        <mxCell id="rsw7MymRpZkF1JD-pnbW-11" value="[Размерность указана не в формате int]" style="text;html=1;align=center;verticalAlign=middle;resizable=0;points=[];autosize=1;strokeColor=none;fillColor=none;" vertex="1" parent="1">
          <mxGeometry x="90" y="300" width="240" height="30" as="geometry" />
        </mxCell>
        <mxCell id="rsw7MymRpZkF1JD-pnbW-12" value="[Размерность указана в формате int]" style="text;html=1;align=center;verticalAlign=middle;resizable=0;points=[];autosize=1;strokeColor=none;fillColor=none;" vertex="1" parent="1">
          <mxGeometry x="460" y="370" width="230" height="30" as="geometry" />
        </mxCell>
        <mxCell id="rsw7MymRpZkF1JD-pnbW-16" style="edgeStyle=orthogonalEdgeStyle;rounded=0;orthogonalLoop=1;jettySize=auto;html=1;exitX=0.5;exitY=0.5;exitDx=0;exitDy=25;exitPerimeter=0;endArrow=open;endFill=0;entryX=0.5;entryY=0.5;entryDx=0;entryDy=-10;entryPerimeter=0;" edge="1" parent="1" source="rsw7MymRpZkF1JD-pnbW-13" target="rsw7MymRpZkF1JD-pnbW-18">
          <mxGeometry relative="1" as="geometry">
            <mxPoint x="432" y="550" as="targetPoint" />
          </mxGeometry>
        </mxCell>
        <mxCell id="rsw7MymRpZkF1JD-pnbW-13" value="Выделение памяти под массив смартфонов длиной size" style="html=1;dashed=0;whiteSpace=wrap;shape=mxgraph.dfd.start" vertex="1" parent="1">
          <mxGeometry x="354" y="440" width="156" height="50" as="geometry" />
        </mxCell>
        <mxCell id="rsw7MymRpZkF1JD-pnbW-61" style="edgeStyle=orthogonalEdgeStyle;rounded=0;orthogonalLoop=1;jettySize=auto;html=1;exitX=0.5;exitY=0.5;exitDx=0;exitDy=10;exitPerimeter=0;entryX=0.599;entryY=0.017;entryDx=0;entryDy=0;entryPerimeter=0;endArrow=open;endFill=0;" edge="1" parent="1" source="rsw7MymRpZkF1JD-pnbW-18" target="rsw7MymRpZkF1JD-pnbW-25">
          <mxGeometry relative="1" as="geometry" />
        </mxCell>
        <mxCell id="rsw7MymRpZkF1JD-pnbW-18" value="Создание переменной i = 0" style="html=1;dashed=0;whiteSpace=wrap;shape=mxgraph.dfd.start" vertex="1" parent="1">
          <mxGeometry x="341.5" y="540" width="181" height="20" as="geometry" />
        </mxCell>
        <mxCell id="rsw7MymRpZkF1JD-pnbW-21" style="edgeStyle=orthogonalEdgeStyle;rounded=0;orthogonalLoop=1;jettySize=auto;html=1;exitX=0.5;exitY=0.5;exitDx=0;exitDy=10;exitPerimeter=0;entryX=0.5;entryY=0;entryDx=0;entryDy=0;endArrow=open;endFill=0;" edge="1" parent="1" source="rsw7MymRpZkF1JD-pnbW-19" target="rsw7MymRpZkF1JD-pnbW-20">
          <mxGeometry relative="1" as="geometry" />
        </mxCell>
        <mxCell id="rsw7MymRpZkF1JD-pnbW-19" value="i = i + 1" style="html=1;dashed=0;whiteSpace=wrap;shape=mxgraph.dfd.start" vertex="1" parent="1">
          <mxGeometry x="379" y="760" width="106" height="20" as="geometry" />
        </mxCell>
        <mxCell id="rsw7MymRpZkF1JD-pnbW-23" style="edgeStyle=orthogonalEdgeStyle;rounded=0;orthogonalLoop=1;jettySize=auto;html=1;exitX=1;exitY=0.5;exitDx=0;exitDy=0;entryX=1;entryY=0.5;entryDx=0;entryDy=0;entryPerimeter=0;endArrow=open;endFill=0;" edge="1" parent="1" source="rsw7MymRpZkF1JD-pnbW-20" target="rsw7MymRpZkF1JD-pnbW-25">
          <mxGeometry relative="1" as="geometry">
            <mxPoint x="290" y="900" as="targetPoint" />
            <Array as="points">
              <mxPoint x="650" y="820" />
              <mxPoint x="650" y="595" />
            </Array>
          </mxGeometry>
        </mxCell>
        <mxCell id="rsw7MymRpZkF1JD-pnbW-60" style="edgeStyle=orthogonalEdgeStyle;rounded=0;orthogonalLoop=1;jettySize=auto;html=1;exitX=0.5;exitY=1;exitDx=0;exitDy=0;endArrow=open;endFill=0;entryX=0.5;entryY=0.5;entryDx=0;entryDy=-10;entryPerimeter=0;" edge="1" parent="1" source="rsw7MymRpZkF1JD-pnbW-20" target="rsw7MymRpZkF1JD-pnbW-62">
          <mxGeometry relative="1" as="geometry">
            <mxPoint x="432" y="860" as="targetPoint" />
          </mxGeometry>
        </mxCell>
        <mxCell id="rsw7MymRpZkF1JD-pnbW-20" value="" style="rhombus;whiteSpace=wrap;html=1;" vertex="1" parent="1">
          <mxGeometry x="422" y="810" width="20" height="20" as="geometry" />
        </mxCell>
        <mxCell id="rsw7MymRpZkF1JD-pnbW-32" style="edgeStyle=orthogonalEdgeStyle;rounded=0;orthogonalLoop=1;jettySize=auto;html=1;exitX=0.75;exitY=1;exitDx=0;exitDy=0;exitPerimeter=0;entryX=0.75;entryY=0;entryDx=0;entryDy=0;entryPerimeter=0;endArrow=open;endFill=0;" edge="1" parent="1" source="rsw7MymRpZkF1JD-pnbW-25" target="rsw7MymRpZkF1JD-pnbW-26">
          <mxGeometry relative="1" as="geometry">
            <mxPoint x="458.66666666666674" y="660" as="targetPoint" />
          </mxGeometry>
        </mxCell>
        <mxCell id="rsw7MymRpZkF1JD-pnbW-25" value="Ввод модели i-ого элемента" style="html=1;dashed=0;whiteSpace=wrap;shape=mxgraph.dfd.start" vertex="1" parent="1">
          <mxGeometry x="316" y="585" width="195" height="20" as="geometry" />
        </mxCell>
        <mxCell id="rsw7MymRpZkF1JD-pnbW-34" style="edgeStyle=orthogonalEdgeStyle;rounded=0;orthogonalLoop=1;jettySize=auto;html=1;exitX=0.75;exitY=1;exitDx=0;exitDy=0;exitPerimeter=0;entryX=0.75;entryY=0;entryDx=0;entryDy=0;entryPerimeter=0;endArrow=open;endFill=0;" edge="1" parent="1" source="rsw7MymRpZkF1JD-pnbW-26" target="rsw7MymRpZkF1JD-pnbW-27">
          <mxGeometry relative="1" as="geometry" />
        </mxCell>
        <mxCell id="rsw7MymRpZkF1JD-pnbW-46" style="edgeStyle=orthogonalEdgeStyle;rounded=0;orthogonalLoop=1;jettySize=auto;html=1;exitX=0;exitY=0.5;exitDx=0;exitDy=0;exitPerimeter=0;entryX=0;entryY=0.5;entryDx=0;entryDy=0;entryPerimeter=0;endArrow=open;endFill=0;" edge="1" parent="1" source="rsw7MymRpZkF1JD-pnbW-26" target="rsw7MymRpZkF1JD-pnbW-25">
          <mxGeometry relative="1" as="geometry" />
        </mxCell>
        <mxCell id="rsw7MymRpZkF1JD-pnbW-26" value="Ввод цены i-ого элемента" style="html=1;dashed=0;whiteSpace=wrap;shape=mxgraph.dfd.start" vertex="1" parent="1">
          <mxGeometry x="315" y="650" width="191" height="20" as="geometry" />
        </mxCell>
        <mxCell id="rsw7MymRpZkF1JD-pnbW-40" style="edgeStyle=orthogonalEdgeStyle;rounded=0;orthogonalLoop=1;jettySize=auto;html=1;exitX=0.75;exitY=1;exitDx=0;exitDy=0;exitPerimeter=0;entryX=0.75;entryY=0;entryDx=0;entryDy=0;entryPerimeter=0;endArrow=open;endFill=0;" edge="1" parent="1" source="rsw7MymRpZkF1JD-pnbW-27" target="rsw7MymRpZkF1JD-pnbW-19">
          <mxGeometry relative="1" as="geometry" />
        </mxCell>
        <mxCell id="rsw7MymRpZkF1JD-pnbW-44" style="edgeStyle=orthogonalEdgeStyle;rounded=0;orthogonalLoop=1;jettySize=auto;html=1;exitX=0;exitY=0.5;exitDx=0;exitDy=0;exitPerimeter=0;entryX=0;entryY=0.5;entryDx=0;entryDy=0;entryPerimeter=0;endArrow=open;endFill=0;" edge="1" parent="1" source="rsw7MymRpZkF1JD-pnbW-27" target="rsw7MymRpZkF1JD-pnbW-25">
          <mxGeometry relative="1" as="geometry" />
        </mxCell>
        <mxCell id="rsw7MymRpZkF1JD-pnbW-27" value="Ввод диагонали i-ого элемента" style="html=1;dashed=0;whiteSpace=wrap;shape=mxgraph.dfd.start" vertex="1" parent="1">
          <mxGeometry x="315" y="710" width="191" height="20" as="geometry" />
        </mxCell>
        <mxCell id="rsw7MymRpZkF1JD-pnbW-35" style="edgeStyle=orthogonalEdgeStyle;rounded=0;orthogonalLoop=1;jettySize=auto;html=1;exitX=0.5;exitY=0.5;exitDx=0;exitDy=10;exitPerimeter=0;" edge="1" parent="1" source="rsw7MymRpZkF1JD-pnbW-27" target="rsw7MymRpZkF1JD-pnbW-27">
          <mxGeometry relative="1" as="geometry" />
        </mxCell>
        <mxCell id="rsw7MymRpZkF1JD-pnbW-37" value="[Некорректный ввод]" style="text;html=1;align=center;verticalAlign=middle;resizable=0;points=[];autosize=1;strokeColor=none;fillColor=none;" vertex="1" parent="1">
          <mxGeometry x="150" y="635" width="140" height="30" as="geometry" />
        </mxCell>
        <mxCell id="rsw7MymRpZkF1JD-pnbW-38" value="[Корректный ввод]" style="text;html=1;align=center;verticalAlign=middle;resizable=0;points=[];autosize=1;strokeColor=none;fillColor=none;" vertex="1" parent="1">
          <mxGeometry x="450" y="605" width="130" height="30" as="geometry" />
        </mxCell>
        <mxCell id="rsw7MymRpZkF1JD-pnbW-39" value="[Корректный ввод]" style="text;html=1;align=center;verticalAlign=middle;resizable=0;points=[];autosize=1;strokeColor=none;fillColor=none;" vertex="1" parent="1">
          <mxGeometry x="450" y="670" width="130" height="30" as="geometry" />
        </mxCell>
        <mxCell id="rsw7MymRpZkF1JD-pnbW-42" value="[Корректный ввод]" style="text;html=1;align=center;verticalAlign=middle;resizable=0;points=[];autosize=1;strokeColor=none;fillColor=none;" vertex="1" parent="1">
          <mxGeometry x="450" y="730" width="130" height="30" as="geometry" />
        </mxCell>
        <mxCell id="rsw7MymRpZkF1JD-pnbW-43" value="[i &amp;lt; szie]" style="text;html=1;align=center;verticalAlign=middle;resizable=0;points=[];autosize=1;strokeColor=none;fillColor=none;" vertex="1" parent="1">
          <mxGeometry x="660" y="690" width="70" height="30" as="geometry" />
        </mxCell>
        <mxCell id="rsw7MymRpZkF1JD-pnbW-47" style="edgeStyle=orthogonalEdgeStyle;rounded=0;orthogonalLoop=1;jettySize=auto;html=1;exitX=0.25;exitY=1;exitDx=0;exitDy=0;exitPerimeter=0;entryX=0;entryY=0.5;entryDx=0;entryDy=0;entryPerimeter=0;endArrow=open;endFill=0;" edge="1" parent="1" source="rsw7MymRpZkF1JD-pnbW-25" target="rsw7MymRpZkF1JD-pnbW-25">
          <mxGeometry relative="1" as="geometry">
            <Array as="points">
              <mxPoint x="365" y="625" />
              <mxPoint x="300" y="625" />
              <mxPoint x="300" y="595" />
            </Array>
          </mxGeometry>
        </mxCell>
        <mxCell id="rsw7MymRpZkF1JD-pnbW-52" style="edgeStyle=orthogonalEdgeStyle;rounded=0;orthogonalLoop=1;jettySize=auto;html=1;exitX=0.5;exitY=0.5;exitDx=0;exitDy=20;exitPerimeter=0;entryX=0.5;entryY=0;entryDx=0;entryDy=0;endArrow=open;endFill=0;" edge="1" parent="1" source="rsw7MymRpZkF1JD-pnbW-48" target="rsw7MymRpZkF1JD-pnbW-50">
          <mxGeometry relative="1" as="geometry" />
        </mxCell>
        <mxCell id="rsw7MymRpZkF1JD-pnbW-48" value="Запрос пути к новому файлу" style="html=1;dashed=0;whiteSpace=wrap;shape=mxgraph.dfd.start" vertex="1" parent="1">
          <mxGeometry x="355.25" y="1584" width="161.5" height="40" as="geometry" />
        </mxCell>
        <mxCell id="rsw7MymRpZkF1JD-pnbW-59" style="edgeStyle=orthogonalEdgeStyle;rounded=0;orthogonalLoop=1;jettySize=auto;html=1;exitX=0.5;exitY=0.5;exitDx=0;exitDy=20;exitPerimeter=0;entryX=0.5;entryY=0;entryDx=0;entryDy=0;endArrow=open;endFill=0;" edge="1" parent="1" source="rsw7MymRpZkF1JD-pnbW-49" target="rsw7MymRpZkF1JD-pnbW-2">
          <mxGeometry relative="1" as="geometry" />
        </mxCell>
        <mxCell id="rsw7MymRpZkF1JD-pnbW-49" value="Сохранение файла" style="html=1;dashed=0;whiteSpace=wrap;shape=mxgraph.dfd.start" vertex="1" parent="1">
          <mxGeometry x="355.25" y="1823" width="161.5" height="40" as="geometry" />
        </mxCell>
        <mxCell id="rsw7MymRpZkF1JD-pnbW-53" style="edgeStyle=orthogonalEdgeStyle;rounded=0;orthogonalLoop=1;jettySize=auto;html=1;exitX=0;exitY=0.5;exitDx=0;exitDy=0;entryX=0;entryY=0.5;entryDx=0;entryDy=0;entryPerimeter=0;endArrow=open;endFill=0;" edge="1" parent="1" source="rsw7MymRpZkF1JD-pnbW-50" target="rsw7MymRpZkF1JD-pnbW-48">
          <mxGeometry relative="1" as="geometry">
            <Array as="points">
              <mxPoint x="324" y="1674" />
              <mxPoint x="324" y="1604" />
            </Array>
          </mxGeometry>
        </mxCell>
        <mxCell id="rsw7MymRpZkF1JD-pnbW-57" style="edgeStyle=orthogonalEdgeStyle;rounded=0;orthogonalLoop=1;jettySize=auto;html=1;exitX=0.5;exitY=1;exitDx=0;exitDy=0;entryX=0.5;entryY=0.5;entryDx=0;entryDy=-20;entryPerimeter=0;endArrow=open;endFill=0;" edge="1" parent="1" source="rsw7MymRpZkF1JD-pnbW-50" target="rsw7MymRpZkF1JD-pnbW-56">
          <mxGeometry relative="1" as="geometry" />
        </mxCell>
        <mxCell id="rsw7MymRpZkF1JD-pnbW-50" value="" style="rhombus;whiteSpace=wrap;html=1;" vertex="1" parent="1">
          <mxGeometry x="426" y="1664" width="20" height="20" as="geometry" />
        </mxCell>
        <mxCell id="rsw7MymRpZkF1JD-pnbW-54" value="[Путь некорректный]" style="text;html=1;align=center;verticalAlign=middle;resizable=0;points=[];autosize=1;strokeColor=none;fillColor=none;" vertex="1" parent="1">
          <mxGeometry x="184" y="1624" width="140" height="30" as="geometry" />
        </mxCell>
        <mxCell id="rsw7MymRpZkF1JD-pnbW-55" value="[Путь корректный]" style="text;html=1;align=center;verticalAlign=middle;resizable=0;points=[];autosize=1;strokeColor=none;fillColor=none;" vertex="1" parent="1">
          <mxGeometry x="474" y="1684" width="120" height="30" as="geometry" />
        </mxCell>
        <mxCell id="rsw7MymRpZkF1JD-pnbW-58" style="edgeStyle=orthogonalEdgeStyle;rounded=0;orthogonalLoop=1;jettySize=auto;html=1;exitX=0.5;exitY=0.5;exitDx=0;exitDy=20;exitPerimeter=0;entryX=0.5;entryY=0.5;entryDx=0;entryDy=-20;entryPerimeter=0;endArrow=open;endFill=0;" edge="1" parent="1" source="rsw7MymRpZkF1JD-pnbW-56" target="rsw7MymRpZkF1JD-pnbW-49">
          <mxGeometry relative="1" as="geometry" />
        </mxCell>
        <mxCell id="rsw7MymRpZkF1JD-pnbW-56" value="Серилизация массива в формат JSON" style="html=1;dashed=0;whiteSpace=wrap;shape=mxgraph.dfd.start" vertex="1" parent="1">
          <mxGeometry x="355.25" y="1724" width="161.5" height="40" as="geometry" />
        </mxCell>
        <mxCell id="rsw7MymRpZkF1JD-pnbW-64" style="edgeStyle=orthogonalEdgeStyle;rounded=0;orthogonalLoop=1;jettySize=auto;html=1;exitX=0.5;exitY=0.5;exitDx=0;exitDy=10;exitPerimeter=0;entryX=0.5;entryY=0.5;entryDx=0;entryDy=-10;entryPerimeter=0;endArrow=open;endFill=0;" edge="1" parent="1" source="rsw7MymRpZkF1JD-pnbW-62" target="rsw7MymRpZkF1JD-pnbW-63">
          <mxGeometry relative="1" as="geometry" />
        </mxCell>
        <mxCell id="rsw7MymRpZkF1JD-pnbW-62" value="Создание переменной i = 0" style="html=1;dashed=0;whiteSpace=wrap;shape=mxgraph.dfd.start" vertex="1" parent="1">
          <mxGeometry x="341.5" y="860" width="181" height="20" as="geometry" />
        </mxCell>
        <mxCell id="rsw7MymRpZkF1JD-pnbW-65" style="edgeStyle=orthogonalEdgeStyle;rounded=0;orthogonalLoop=1;jettySize=auto;html=1;exitX=0.5;exitY=0.5;exitDx=0;exitDy=10;exitPerimeter=0;endArrow=open;endFill=0;entryX=0.5;entryY=0.5;entryDx=0;entryDy=-20;entryPerimeter=0;" edge="1" parent="1" source="rsw7MymRpZkF1JD-pnbW-63" target="rsw7MymRpZkF1JD-pnbW-66">
          <mxGeometry relative="1" as="geometry">
            <mxPoint x="432" y="960" as="targetPoint" />
          </mxGeometry>
        </mxCell>
        <mxCell id="rsw7MymRpZkF1JD-pnbW-63" value="Создание переменной j = 0" style="html=1;dashed=0;whiteSpace=wrap;shape=mxgraph.dfd.start" vertex="1" parent="1">
          <mxGeometry x="341.5" y="910" width="181" height="20" as="geometry" />
        </mxCell>
        <mxCell id="rsw7MymRpZkF1JD-pnbW-68" style="edgeStyle=orthogonalEdgeStyle;rounded=0;orthogonalLoop=1;jettySize=auto;html=1;exitX=0.5;exitY=0.5;exitDx=0;exitDy=20;exitPerimeter=0;entryX=0;entryY=0.5;entryDx=0;entryDy=0;endArrow=open;endFill=0;" edge="1" parent="1" source="rsw7MymRpZkF1JD-pnbW-66" target="rsw7MymRpZkF1JD-pnbW-67">
          <mxGeometry relative="1" as="geometry" />
        </mxCell>
        <mxCell id="rsw7MymRpZkF1JD-pnbW-66" value="Сравнение модели j-ого смартфона с моделью j+1-ого&amp;nbsp;" style="html=1;dashed=0;whiteSpace=wrap;shape=mxgraph.dfd.start" vertex="1" parent="1">
          <mxGeometry x="332.75" y="960" width="198.5" height="40" as="geometry" />
        </mxCell>
        <mxCell id="rsw7MymRpZkF1JD-pnbW-70" style="edgeStyle=orthogonalEdgeStyle;rounded=0;orthogonalLoop=1;jettySize=auto;html=1;exitX=0.5;exitY=1;exitDx=0;exitDy=0;endArrow=open;endFill=0;" edge="1" parent="1" source="rsw7MymRpZkF1JD-pnbW-67" target="rsw7MymRpZkF1JD-pnbW-71">
          <mxGeometry relative="1" as="geometry">
            <mxPoint x="360" y="1100" as="targetPoint" />
          </mxGeometry>
        </mxCell>
        <mxCell id="rsw7MymRpZkF1JD-pnbW-74" style="edgeStyle=orthogonalEdgeStyle;rounded=0;orthogonalLoop=1;jettySize=auto;html=1;exitX=0.5;exitY=0;exitDx=0;exitDy=0;entryX=0;entryY=0.5;entryDx=0;entryDy=0;endArrow=open;endFill=0;" edge="1" parent="1" source="rsw7MymRpZkF1JD-pnbW-67" target="rsw7MymRpZkF1JD-pnbW-73">
          <mxGeometry relative="1" as="geometry" />
        </mxCell>
        <mxCell id="rsw7MymRpZkF1JD-pnbW-67" value="" style="rhombus;whiteSpace=wrap;html=1;direction=south;" vertex="1" parent="1">
          <mxGeometry x="422" y="1036" width="20" height="20" as="geometry" />
        </mxCell>
        <mxCell id="rsw7MymRpZkF1JD-pnbW-92" style="edgeStyle=orthogonalEdgeStyle;rounded=0;orthogonalLoop=1;jettySize=auto;html=1;exitX=0.5;exitY=0.5;exitDx=0;exitDy=15;exitPerimeter=0;endArrow=open;endFill=0;" edge="1" parent="1" source="rsw7MymRpZkF1JD-pnbW-71">
          <mxGeometry relative="1" as="geometry">
            <mxPoint x="430" y="1430" as="targetPoint" />
          </mxGeometry>
        </mxCell>
        <mxCell id="rsw7MymRpZkF1JD-pnbW-71" value="Смартфоны j и j+1 меняются местами" style="html=1;dashed=0;whiteSpace=wrap;shape=mxgraph.dfd.start" vertex="1" parent="1">
          <mxGeometry x="223.75" y="1090" width="172.5" height="30" as="geometry" />
        </mxCell>
        <mxCell id="rsw7MymRpZkF1JD-pnbW-72" value="[Модель j меньше модели j + 1]" style="text;html=1;align=center;verticalAlign=middle;resizable=0;points=[];autosize=1;strokeColor=none;fillColor=none;" vertex="1" parent="1">
          <mxGeometry x="210" y="1018" width="200" height="30" as="geometry" />
        </mxCell>
        <mxCell id="rsw7MymRpZkF1JD-pnbW-76" style="edgeStyle=orthogonalEdgeStyle;rounded=0;orthogonalLoop=1;jettySize=auto;html=1;exitX=0.5;exitY=1;exitDx=0;exitDy=0;endArrow=open;endFill=0;" edge="1" parent="1" source="rsw7MymRpZkF1JD-pnbW-73">
          <mxGeometry relative="1" as="geometry">
            <mxPoint x="430" y="1430" as="targetPoint" />
          </mxGeometry>
        </mxCell>
        <mxCell id="rsw7MymRpZkF1JD-pnbW-79" style="edgeStyle=orthogonalEdgeStyle;rounded=0;orthogonalLoop=1;jettySize=auto;html=1;exitX=0.5;exitY=0;exitDx=0;exitDy=0;endArrow=open;endFill=0;entryX=0.5;entryY=0.5;entryDx=0;entryDy=-15;entryPerimeter=0;" edge="1" parent="1" source="rsw7MymRpZkF1JD-pnbW-73" target="rsw7MymRpZkF1JD-pnbW-81">
          <mxGeometry relative="1" as="geometry">
            <mxPoint x="720" y="1180" as="targetPoint" />
          </mxGeometry>
        </mxCell>
        <mxCell id="rsw7MymRpZkF1JD-pnbW-73" value="" style="rhombus;whiteSpace=wrap;html=1;direction=south;" vertex="1" parent="1">
          <mxGeometry x="506" y="1110" width="20" height="20" as="geometry" />
        </mxCell>
        <mxCell id="rsw7MymRpZkF1JD-pnbW-75" value="[Модель j не меньше модели j + 1]" style="text;html=1;align=center;verticalAlign=middle;resizable=0;points=[];autosize=1;strokeColor=none;fillColor=none;" vertex="1" parent="1">
          <mxGeometry x="465" y="1018" width="210" height="30" as="geometry" />
        </mxCell>
        <mxCell id="rsw7MymRpZkF1JD-pnbW-77" value="[Модель j больше модели j + 1]" style="text;html=1;align=center;verticalAlign=middle;resizable=0;points=[];autosize=1;strokeColor=none;fillColor=none;" vertex="1" parent="1">
          <mxGeometry x="419" y="1139" width="200" height="30" as="geometry" />
        </mxCell>
        <mxCell id="rsw7MymRpZkF1JD-pnbW-78" value="Места&amp;nbsp; где упоминается сравнение моделей смартфонов, есть сравнение строк в алфавитном порядке с учётом регистра. Например A &amp;lt; Z." style="shape=note;whiteSpace=wrap;html=1;backgroundOutline=1;darkOpacity=0.05;size=7;" vertex="1" parent="1">
          <mxGeometry x="695" y="1030" width="250" height="70" as="geometry" />
        </mxCell>
        <mxCell id="rsw7MymRpZkF1JD-pnbW-80" value="[Модель j равна модели j + 1]" style="text;html=1;align=center;verticalAlign=middle;resizable=0;points=[];autosize=1;strokeColor=none;fillColor=none;" vertex="1" parent="1">
          <mxGeometry x="720" y="1130" width="190" height="30" as="geometry" />
        </mxCell>
        <mxCell id="rsw7MymRpZkF1JD-pnbW-83" style="edgeStyle=orthogonalEdgeStyle;rounded=0;orthogonalLoop=1;jettySize=auto;html=1;exitX=0.5;exitY=0.5;exitDx=0;exitDy=15;exitPerimeter=0;entryX=0;entryY=0.5;entryDx=0;entryDy=0;endArrow=open;endFill=0;" edge="1" parent="1" source="rsw7MymRpZkF1JD-pnbW-81" target="rsw7MymRpZkF1JD-pnbW-82">
          <mxGeometry relative="1" as="geometry" />
        </mxCell>
        <mxCell id="rsw7MymRpZkF1JD-pnbW-81" value="Сравнение диагонали j-ого смартфона с диагональю j+1-ого" style="html=1;dashed=0;whiteSpace=wrap;shape=mxgraph.dfd.start" vertex="1" parent="1">
          <mxGeometry x="619" y="1180" width="207.5" height="30" as="geometry" />
        </mxCell>
        <mxCell id="rsw7MymRpZkF1JD-pnbW-86" style="edgeStyle=orthogonalEdgeStyle;rounded=0;orthogonalLoop=1;jettySize=auto;html=1;exitX=0.5;exitY=0;exitDx=0;exitDy=0;endArrow=open;endFill=0;" edge="1" parent="1" source="rsw7MymRpZkF1JD-pnbW-82">
          <mxGeometry relative="1" as="geometry">
            <mxPoint x="430" y="1430" as="targetPoint" />
          </mxGeometry>
        </mxCell>
        <mxCell id="rsw7MymRpZkF1JD-pnbW-89" style="edgeStyle=orthogonalEdgeStyle;rounded=0;orthogonalLoop=1;jettySize=auto;html=1;exitX=0.5;exitY=1;exitDx=0;exitDy=0;endArrow=open;endFill=0;entryX=0.5;entryY=0.5;entryDx=0;entryDy=-15;entryPerimeter=0;" edge="1" parent="1" source="rsw7MymRpZkF1JD-pnbW-82" target="rsw7MymRpZkF1JD-pnbW-90">
          <mxGeometry relative="1" as="geometry">
            <mxPoint x="610" y="1320" as="targetPoint" />
          </mxGeometry>
        </mxCell>
        <mxCell id="rsw7MymRpZkF1JD-pnbW-82" value="" style="rhombus;whiteSpace=wrap;html=1;direction=south;" vertex="1" parent="1">
          <mxGeometry x="712.75" y="1248" width="20" height="20" as="geometry" />
        </mxCell>
        <mxCell id="rsw7MymRpZkF1JD-pnbW-87" value="[Диагональ j меньше диагонали j + 1]" style="text;html=1;align=center;verticalAlign=middle;resizable=0;points=[];autosize=1;strokeColor=none;fillColor=none;" vertex="1" parent="1">
          <mxGeometry x="482.75" y="1230" width="230" height="30" as="geometry" />
        </mxCell>
        <mxCell id="rsw7MymRpZkF1JD-pnbW-103" style="edgeStyle=orthogonalEdgeStyle;rounded=0;orthogonalLoop=1;jettySize=auto;html=1;exitX=0.5;exitY=0.5;exitDx=0;exitDy=15;exitPerimeter=0;endArrow=open;endFill=0;entryX=0.464;entryY=-0.072;entryDx=0;entryDy=0;entryPerimeter=0;" edge="1" parent="1" source="rsw7MymRpZkF1JD-pnbW-90" target="rsw7MymRpZkF1JD-pnbW-93">
          <mxGeometry relative="1" as="geometry">
            <Array as="points">
              <mxPoint x="609" y="1350" />
              <mxPoint x="430" y="1350" />
            </Array>
          </mxGeometry>
        </mxCell>
        <mxCell id="rsw7MymRpZkF1JD-pnbW-90" value="Смартфоны j и j+1 меняются местами" style="html=1;dashed=0;whiteSpace=wrap;shape=mxgraph.dfd.start" vertex="1" parent="1">
          <mxGeometry x="522.5" y="1310" width="172.5" height="30" as="geometry" />
        </mxCell>
        <mxCell id="rsw7MymRpZkF1JD-pnbW-91" value="[Диагональ j не меньше диагонали j + 1]" style="text;html=1;align=center;verticalAlign=middle;resizable=0;points=[];autosize=1;strokeColor=none;fillColor=none;" vertex="1" parent="1">
          <mxGeometry x="722.75" y="1220" width="250" height="30" as="geometry" />
        </mxCell>
        <mxCell id="rsw7MymRpZkF1JD-pnbW-94" style="edgeStyle=orthogonalEdgeStyle;rounded=0;orthogonalLoop=1;jettySize=auto;html=1;exitX=0;exitY=0.5;exitDx=0;exitDy=0;exitPerimeter=0;entryX=0;entryY=0.5;entryDx=0;entryDy=0;entryPerimeter=0;endArrow=open;endFill=0;" edge="1" parent="1" source="rsw7MymRpZkF1JD-pnbW-93" target="rsw7MymRpZkF1JD-pnbW-66">
          <mxGeometry relative="1" as="geometry">
            <Array as="points">
              <mxPoint x="160" y="1445" />
              <mxPoint x="160" y="980" />
            </Array>
          </mxGeometry>
        </mxCell>
        <mxCell id="rsw7MymRpZkF1JD-pnbW-99" style="edgeStyle=orthogonalEdgeStyle;rounded=0;orthogonalLoop=1;jettySize=auto;html=1;exitX=0.5;exitY=0.5;exitDx=0;exitDy=15;exitPerimeter=0;entryX=0.5;entryY=0.5;entryDx=0;entryDy=-15;entryPerimeter=0;endArrow=open;endFill=0;" edge="1" parent="1" source="rsw7MymRpZkF1JD-pnbW-93" target="rsw7MymRpZkF1JD-pnbW-97">
          <mxGeometry relative="1" as="geometry" />
        </mxCell>
        <mxCell id="rsw7MymRpZkF1JD-pnbW-93" value="j = j + 1" style="html=1;dashed=0;whiteSpace=wrap;shape=mxgraph.dfd.start" vertex="1" parent="1">
          <mxGeometry x="350" y="1430" width="172.5" height="30" as="geometry" />
        </mxCell>
        <mxCell id="rsw7MymRpZkF1JD-pnbW-95" value="[j &amp;lt; длина массива - i - 1]" style="text;html=1;align=center;verticalAlign=middle;resizable=0;points=[];autosize=1;strokeColor=none;fillColor=none;" vertex="1" parent="1">
          <mxGeometry x="-10" y="1268" width="160" height="30" as="geometry" />
        </mxCell>
        <mxCell id="rsw7MymRpZkF1JD-pnbW-96" value="[j &amp;gt;= длина массива - i - 1]" style="text;html=1;align=center;verticalAlign=middle;resizable=0;points=[];autosize=1;strokeColor=none;fillColor=none;" vertex="1" parent="1">
          <mxGeometry x="434" y="1460" width="170" height="30" as="geometry" />
        </mxCell>
        <mxCell id="rsw7MymRpZkF1JD-pnbW-98" style="edgeStyle=orthogonalEdgeStyle;rounded=0;orthogonalLoop=1;jettySize=auto;html=1;exitX=0;exitY=0.5;exitDx=0;exitDy=0;exitPerimeter=0;entryX=0;entryY=0.5;entryDx=0;entryDy=0;entryPerimeter=0;" edge="1" parent="1" source="rsw7MymRpZkF1JD-pnbW-97" target="rsw7MymRpZkF1JD-pnbW-63">
          <mxGeometry relative="1" as="geometry">
            <Array as="points">
              <mxPoint x="-70" y="1515" />
              <mxPoint x="-70" y="920" />
            </Array>
          </mxGeometry>
        </mxCell>
        <mxCell id="rsw7MymRpZkF1JD-pnbW-102" style="edgeStyle=orthogonalEdgeStyle;rounded=0;orthogonalLoop=1;jettySize=auto;html=1;exitX=0.5;exitY=0.5;exitDx=0;exitDy=15;exitPerimeter=0;entryX=0.5;entryY=0.5;entryDx=0;entryDy=-20;entryPerimeter=0;" edge="1" parent="1" source="rsw7MymRpZkF1JD-pnbW-97" target="rsw7MymRpZkF1JD-pnbW-48">
          <mxGeometry relative="1" as="geometry" />
        </mxCell>
        <mxCell id="rsw7MymRpZkF1JD-pnbW-97" value="i = i + 1" style="html=1;dashed=0;whiteSpace=wrap;shape=mxgraph.dfd.start" vertex="1" parent="1">
          <mxGeometry x="350" y="1500" width="172.5" height="30" as="geometry" />
        </mxCell>
        <mxCell id="rsw7MymRpZkF1JD-pnbW-100" value="[i &amp;lt; длина массива - 1]" style="text;html=1;align=center;verticalAlign=middle;resizable=0;points=[];autosize=1;strokeColor=none;fillColor=none;" vertex="1" parent="1">
          <mxGeometry x="-225" y="1260" width="150" height="30" as="geometry" />
        </mxCell>
        <mxCell id="rsw7MymRpZkF1JD-pnbW-101" value="[i &amp;gt;= длина массива - 1]" style="text;html=1;align=center;verticalAlign=middle;resizable=0;points=[];autosize=1;strokeColor=none;fillColor=none;" vertex="1" parent="1">
          <mxGeometry x="482.75" y="1530" width="150" height="30" as="geometry" />
        </mxCell>
      </root>
    </mxGraphModel>
  </diagram>
</mxfile>
